<svg xmlns="http://www.w3.org/2000/svg" viewBox="0 0 1200 1200">
  <defs>
    <radialGradient id="glow" cx="50%" cy="42%" r="60%">
      <stop offset="0%" stop-color="#1E2024" />
      <stop offset="55%" stop-color="#141518" />
      <stop offset="100%" stop-color="#0A0B0D" />
    </radialGradient>
    <linearGradient id="metal5" x1="0%" y1="0%" x2="100%" y2="100%">
      <stop offset="0%" stop-color="#9AA0A6" />
      <stop offset="100%" stop-color="#5B6168" />
    </linearGradient>
  </defs>
  <rect width="1200" height="1200" fill="url(#glow)" />
  <g stroke="#23262B" stroke-width="1">
    <line x1="0" y1="300" x2="1200" y2="300" opacity="0.4" />
    <line x1="0" y1="900" x2="1200" y2="900" opacity="0.4" />
  </g>
  <g transform="translate(600,600)">
    <rect x="-340" y="-130" width="680" height="260" rx="130" fill="#101114" stroke="url(#metal5)" stroke-width="10" />
    <g fill="none" stroke="url(#metal5)" stroke-width="3" opacity="0.85">
      <circle cx="-230" cy="0" r="10" /><circle cx="-190" cy="0" r="10" /><circle cx="-150" cy="0" r="10" />
      <circle cx="-230" cy="40" r="10" /><circle cx="-190" cy="40" r="10" /><circle cx="-150" cy="40" r="10" />
      <circle cx="-230" cy="-40" r="10" /><circle cx="-190" cy="-40" r="10" /><circle cx="-150" cy="-40" r="10" />
      <circle cx="150" cy="0" r="10" /><circle cx="190" cy="0" r="10" /><circle cx="230" cy="0" r="10" />
      <circle cx="150" cy="40" r="10" /><circle cx="190" cy="40" r="10" /><circle cx="230" cy="40" r="10" />
      <circle cx="150" cy="-40" r="10" /><circle cx="190" cy="-40" r="10" /><circle cx="230" cy="-40" r="10" />
    </g>
    <circle cx="0" cy="0" r="60" fill="none" stroke="url(#metal5)" stroke-width="8" />
  </g>
  <text x="600" y="1080" text-anchor="middle" font-family="Georgia, serif" font-size="34" fill="#94999F" letter-spacing="2">JBL Charge 5</text>
</svg>
