<svg xmlns="http://www.w3.org/2000/svg" viewBox="0 0 1200 1200">
  <defs>
    <radialGradient id="glow" cx="50%" cy="42%" r="60%">
      <stop offset="0%" stop-color="#1E2024" />
      <stop offset="55%" stop-color="#141518" />
      <stop offset="100%" stop-color="#0A0B0D" />
    </radialGradient>
    <linearGradient id="metal4" x1="0%" y1="0%" x2="100%" y2="100%">
      <stop offset="0%" stop-color="#9AA0A6" />
      <stop offset="100%" stop-color="#5B6168" />
    </linearGradient>
  </defs>
  <rect width="1200" height="1200" fill="url(#glow)" />
  <g stroke="#23262B" stroke-width="1">
    <line x1="0" y1="300" x2="1200" y2="300" opacity="0.4" />
    <line x1="0" y1="900" x2="1200" y2="900" opacity="0.4" />
  </g>
  <g transform="translate(600,600)">
    <path d="M -80 -320 C -140 -320 -170 -260 -150 -180 L -110 200 C -100 260 -60 300 0 300 C 60 300 100 260 110 200 L 150 -180 C 170 -260 140 -320 80 -320 Z"
      fill="#101114" stroke="url(#metal4)" stroke-width="8" />
    <line x1="-70" y1="-260" x2="-70" y2="240" stroke="#2B2E33" stroke-width="2" />
    <line x1="70" y1="-260" x2="70" y2="240" stroke="#2B2E33" stroke-width="2" />
    <circle cx="0" cy="-60" r="10" fill="none" stroke="url(#metal4)" stroke-width="4" />
    <circle cx="0" cy="-10" r="10" fill="none" stroke="url(#metal4)" stroke-width="4" />
  </g>
  <text x="600" y="1080" text-anchor="middle" font-family="Georgia, serif" font-size="34" fill="#94999F" letter-spacing="2">PlayStation 5 Slim</text>
</svg>
